<mxfile host="app.diagrams.net" modified="2021-05-29T07:48:00.776Z" agent="5.0 (Windows NT 10.0; Win64; x64) AppleWebKit/537.36 (KHTML, like Gecko) Chrome/91.0.4472.77 Safari/537.36 Edg/91.0.864.37" etag="HZI9utUqYN3ZamMu1PiX" version="14.7.2" type="github">
  <diagram id="7DnAlzHaXRrK2oMAIGP7" name="第 1 页">
    <mxGraphModel dx="1422" dy="833" grid="1" gridSize="10" guides="1" tooltips="1" connect="1" arrows="1" fold="1" page="1" pageScale="1" pageWidth="827" pageHeight="1169" math="0" shadow="0">
      <root>
        <mxCell id="0" />
        <mxCell id="1" parent="0" />
        <mxCell id="3U5E9--54Rv29zYTB-zg-15" style="edgeStyle=orthogonalEdgeStyle;curved=1;rounded=0;orthogonalLoop=1;jettySize=auto;html=1;exitX=0.5;exitY=0;exitDx=0;exitDy=0;entryX=0.5;entryY=1;entryDx=0;entryDy=0;fontSize=14;" edge="1" parent="1" source="3U5E9--54Rv29zYTB-zg-5" target="3U5E9--54Rv29zYTB-zg-12">
          <mxGeometry relative="1" as="geometry" />
        </mxCell>
        <mxCell id="3U5E9--54Rv29zYTB-zg-5" value="Python基础语言+NumPy" style="rounded=1;whiteSpace=wrap;html=1;fontSize=14;" vertex="1" parent="1">
          <mxGeometry x="90" y="560" width="120" height="50" as="geometry" />
        </mxCell>
        <mxCell id="3U5E9--54Rv29zYTB-zg-24" style="edgeStyle=orthogonalEdgeStyle;curved=1;rounded=0;orthogonalLoop=1;jettySize=auto;html=1;exitX=0.5;exitY=0;exitDx=0;exitDy=0;entryX=0.5;entryY=1;entryDx=0;entryDy=0;fontSize=14;" edge="1" parent="1" source="3U5E9--54Rv29zYTB-zg-6" target="3U5E9--54Rv29zYTB-zg-8">
          <mxGeometry relative="1" as="geometry" />
        </mxCell>
        <mxCell id="3U5E9--54Rv29zYTB-zg-6" value="Pyside 2制作图形界面" style="rounded=1;whiteSpace=wrap;html=1;fontSize=14;" vertex="1" parent="1">
          <mxGeometry x="230" y="280" width="120" height="50" as="geometry" />
        </mxCell>
        <mxCell id="3U5E9--54Rv29zYTB-zg-25" style="edgeStyle=orthogonalEdgeStyle;curved=1;rounded=0;orthogonalLoop=1;jettySize=auto;html=1;exitX=0.5;exitY=0;exitDx=0;exitDy=0;entryX=0;entryY=1;entryDx=0;entryDy=0;fontSize=14;" edge="1" parent="1" source="3U5E9--54Rv29zYTB-zg-7" target="3U5E9--54Rv29zYTB-zg-13">
          <mxGeometry relative="1" as="geometry" />
        </mxCell>
        <mxCell id="3U5E9--54Rv29zYTB-zg-26" style="edgeStyle=orthogonalEdgeStyle;curved=1;rounded=0;orthogonalLoop=1;jettySize=auto;html=1;exitX=0.5;exitY=0;exitDx=0;exitDy=0;entryX=1;entryY=1;entryDx=0;entryDy=0;fontSize=14;" edge="1" parent="1" source="3U5E9--54Rv29zYTB-zg-7" target="3U5E9--54Rv29zYTB-zg-14">
          <mxGeometry relative="1" as="geometry" />
        </mxCell>
        <mxCell id="3U5E9--54Rv29zYTB-zg-7" value="Python基础语言+Matplotlib" style="rounded=1;whiteSpace=wrap;html=1;fontSize=14;" vertex="1" parent="1">
          <mxGeometry x="300" y="560" width="120" height="50" as="geometry" />
        </mxCell>
        <mxCell id="3U5E9--54Rv29zYTB-zg-8" value="逸度模型软件" style="rounded=1;whiteSpace=wrap;html=1;fontSize=14;" vertex="1" parent="1">
          <mxGeometry x="230" y="200" width="120" height="50" as="geometry" />
        </mxCell>
        <mxCell id="3U5E9--54Rv29zYTB-zg-21" style="edgeStyle=orthogonalEdgeStyle;curved=1;rounded=0;orthogonalLoop=1;jettySize=auto;html=1;exitX=0;exitY=0;exitDx=0;exitDy=0;entryX=0.5;entryY=1;entryDx=0;entryDy=0;fontSize=14;" edge="1" parent="1" source="3U5E9--54Rv29zYTB-zg-12" target="3U5E9--54Rv29zYTB-zg-18">
          <mxGeometry relative="1" as="geometry" />
        </mxCell>
        <mxCell id="3U5E9--54Rv29zYTB-zg-12" value="有机物归趋模拟功能" style="rounded=1;whiteSpace=wrap;html=1;fontSize=14;" vertex="1" parent="1">
          <mxGeometry x="90" y="470" width="120" height="50" as="geometry" />
        </mxCell>
        <mxCell id="3U5E9--54Rv29zYTB-zg-13" value="灵敏度分析" style="rounded=1;whiteSpace=wrap;html=1;fontSize=14;" vertex="1" parent="1">
          <mxGeometry x="230" y="470" width="120" height="50" as="geometry" />
        </mxCell>
        <mxCell id="3U5E9--54Rv29zYTB-zg-22" style="edgeStyle=orthogonalEdgeStyle;curved=1;rounded=0;orthogonalLoop=1;jettySize=auto;html=1;exitX=1;exitY=0;exitDx=0;exitDy=0;entryX=0.5;entryY=1;entryDx=0;entryDy=0;fontSize=14;" edge="1" parent="1" source="3U5E9--54Rv29zYTB-zg-14" target="3U5E9--54Rv29zYTB-zg-18">
          <mxGeometry relative="1" as="geometry" />
        </mxCell>
        <mxCell id="3U5E9--54Rv29zYTB-zg-14" value="不确定度分析" style="rounded=1;whiteSpace=wrap;html=1;fontSize=14;" vertex="1" parent="1">
          <mxGeometry x="370" y="470" width="120" height="50" as="geometry" />
        </mxCell>
        <mxCell id="3U5E9--54Rv29zYTB-zg-23" style="edgeStyle=orthogonalEdgeStyle;curved=1;rounded=0;orthogonalLoop=1;jettySize=auto;html=1;exitX=0.5;exitY=0;exitDx=0;exitDy=0;entryX=0.5;entryY=1;entryDx=0;entryDy=0;fontSize=14;" edge="1" parent="1" source="3U5E9--54Rv29zYTB-zg-18" target="3U5E9--54Rv29zYTB-zg-6">
          <mxGeometry relative="1" as="geometry" />
        </mxCell>
        <mxCell id="3U5E9--54Rv29zYTB-zg-18" value="源程序" style="rounded=1;whiteSpace=wrap;html=1;fontSize=14;" vertex="1" parent="1">
          <mxGeometry x="230" y="360" width="120" height="50" as="geometry" />
        </mxCell>
      </root>
    </mxGraphModel>
  </diagram>
</mxfile>
